<mxfile host="app.diagrams.net" modified="2023-11-23T07:55:24.213Z" agent="Mozilla/5.0 (Windows NT 10.0; Win64; x64) AppleWebKit/537.36 (KHTML, like Gecko) Chrome/119.0.0.0 Safari/537.36" version="22.1.3" etag="gjj6TCS3SvYpQ-6B-3HF" type="github">
  <diagram name="Page-1" id="S8G4q56Oe7KRoCe5QfjO">
    <mxGraphModel>
      <root>
        <mxCell id="0" />
        <mxCell id="1" parent="0" />
      </root>
    </mxGraphModel>
  </diagram>
</mxfile>
